<svg width="24" height="24" viewBox="0 0 24 24" fill="none" xmlns="http://www.w3.org/2000/svg">
<path fill-rule="evenodd" clip-rule="evenodd" d="M4 20C4 21.1046 4.89543 22 6 22H18C19.1046 22 20.0001 21.1046 20.0001 20V9C20.0004 8.99062 19.9998 8.98122 19.998 8.972C19.9949 8.96322 19.9926 8.95418 19.991 8.945C19.9864 8.85718 19.9699 8.77039 19.942 8.687L19.933 8.661C19.9312 8.6557 19.9294 8.65039 19.9276 8.6451C19.9216 8.62744 19.9157 8.60993 19.908 8.593C19.8596 8.48406 19.7918 8.38479 19.708 8.3L13.708 2.3C13.6232 2.21618 13.5239 2.14842 13.415 2.1C13.3937 2.08904 13.3717 2.07968 13.349 2.072L13.321 2.063C13.2373 2.0348 13.1502 2.01765 13.062 2.012C13.0518 2.01103 13.0418 2.00902 13.032 2.006C13.0217 2.00249 13.0109 2.00047 13 2H6C4.89543 2 4 2.89543 4 4V20ZM6 20V4H12V9C12 9.55228 12.4477 10 13 10H18V20H6ZM14 8V5.414L16.586 8H14ZM9 16V18H15V16H9ZM9 14H15V12H9V14Z" fill="#EC10FF"/>
</svg>
