<svg width="28" height="28" viewBox="0 0 28 28" fill="none" xmlns="http://www.w3.org/2000/svg">
<path d="M5.83333 24.5H3.5V23.3334C3.50514 18.8252 7.15847 15.1719 11.6667 15.1667H16.3333C20.8415 15.1719 24.4949 18.8252 24.5 23.3334V24.5H22.1667V23.3334C22.1628 20.1133 19.5534 17.5039 16.3333 17.5H11.6667C8.4466 17.5039 5.83719 20.1133 5.83333 23.3334V24.5ZM14 14C10.7783 14 8.16667 11.3884 8.16667 8.16671C8.16667 4.94505 10.7783 2.33337 14 2.33337C17.2217 2.33337 19.8333 4.94505 19.8333 8.16671C19.8295 11.3868 17.2201 13.9962 14 14ZM14 4.66671C12.067 4.66671 10.5 6.23371 10.5 8.16671C10.5 10.0997 12.067 11.6667 14 11.6667C15.933 11.6667 17.5 10.0997 17.5 8.16671C17.5 6.23371 15.933 4.66671 14 4.66671Z" fill="#EB00FF"/>
</svg>
