<svg width="39" height="36" viewBox="0 0 39 36" fill="none" xmlns="http://www.w3.org/2000/svg">
<path d="M6.5 1.5L2.5 11.5H11.5L20 4L28 11.5H36.5L32.5 1.5H6.5Z" fill="#F171FC"/>
<path d="M1 14.5V12.5L11 12L19.5 4L28 12H38.5V14.5H27L19.5 7.5L12.5 14.5H1Z" fill="#939FA4"/>
<path d="M37.6691 11.44H37.2997L33.8354 2.11306C33.5321 1.29646 32.7431 0.747803 31.872 0.747803H7.41852C6.54749 0.747803 5.75841 1.29646 5.45509 2.11306L1.99091 11.44H1.62143C0.887619 11.44 0.290649 12.0369 0.290649 12.7707V13.8399C0.290649 14.5737 0.887619 15.1707 1.62143 15.1707H1.81815V27.5993C1.81815 27.9124 2.07196 28.1663 2.38518 28.1663C2.69841 28.1663 2.95221 27.9124 2.95221 27.5993V15.1707H11.8553C12.3536 15.1707 12.822 14.9767 13.1744 14.6243L19.6453 8.1533L26.1163 14.6243C26.4686 14.9766 26.9371 15.1706 27.4353 15.1706H36.3384V16.6739C36.3384 16.9871 36.5922 17.241 36.9055 17.241C37.2187 17.241 37.4725 16.9871 37.4725 16.6739V15.1706H37.6692C38.403 15.1706 39 14.5737 39 13.8399V12.7707C38.9999 12.0369 38.403 11.44 37.6691 11.44ZM6.51816 2.50787C6.65727 2.1334 7.01911 1.88186 7.41852 1.88186H31.872C32.2714 1.88186 32.6332 2.13347 32.7723 2.50787L36.0899 11.44H28.208L20.9643 4.19633C20.612 3.84402 20.1436 3.64994 19.6453 3.64994C19.147 3.64994 18.6786 3.84394 18.3263 4.19633L11.0826 11.44H3.20057L6.51816 2.50787ZM37.8659 13.8399C37.8659 13.9484 37.7776 14.0367 37.6691 14.0367H27.4353C27.2399 14.0367 27.0562 13.9606 26.9182 13.8225L20.0462 6.95051C19.9398 6.84414 19.7957 6.78441 19.6452 6.78441C19.4948 6.78441 19.3507 6.84414 19.2442 6.95051L12.3723 13.8225C12.2342 13.9606 12.0505 14.0367 11.8551 14.0367H1.62143C1.51294 14.0367 1.42471 13.9484 1.42471 13.8399V12.7707C1.42471 12.6622 1.51294 12.574 1.62143 12.574H11.3175C11.4679 12.574 11.6121 12.5143 11.7185 12.4079L19.1283 4.99819C19.2664 4.86006 19.45 4.784 19.6454 4.784C19.8407 4.784 20.0244 4.86006 20.1624 4.99819L27.5722 12.4079C27.6786 12.5143 27.8228 12.574 27.9732 12.574H37.6693C37.7778 12.574 37.866 12.6622 37.866 12.7707V13.8399H37.8659Z" fill="#292B36"/>
<path d="M34.3852 30.9034C34.6985 30.9034 34.9523 30.6495 34.9523 30.3364V20.2553C34.9523 19.9421 34.6985 19.6882 34.3852 19.6882H26.7479C26.4347 19.6882 26.1809 19.9421 26.1809 20.2553V30.3364C26.1809 30.6495 26.4347 30.9034 26.7479 30.9034H34.3852ZM33.8182 27.3255H31.1336V24.6409H33.8182V27.3255ZM29.9995 27.3255H27.315V24.6409H29.9995V27.3255ZM33.8182 29.7694H27.315V28.4595H33.8182V29.7694ZM33.8182 23.5068H31.1336V20.8222H33.8182V23.5068ZM29.9995 20.8223V23.5068H27.315V20.8223H29.9995Z" fill="#292B36"/>
<path d="M12.5427 30.9034C12.8559 30.9034 13.1097 30.6495 13.1097 30.3364V20.2553C13.1097 19.9421 12.8559 19.6882 12.5427 19.6882H4.90541C4.59218 19.6882 4.33838 19.9421 4.33838 20.2553V30.3364C4.33838 30.6495 4.59218 30.9034 4.90541 30.9034H12.5427ZM11.9757 27.3255H9.29113V24.6409H11.9757V27.3255ZM8.15706 27.3255H5.47244V24.6409H8.15706V27.3255ZM11.9757 29.7694H5.47244V28.4595H11.9757V29.7694ZM11.9757 23.5068H9.29113V20.8222H11.9757V23.5068ZM8.15706 20.8223V23.5068H5.47244V20.8223H8.15706Z" fill="#292B36"/>
<path d="M21.4783 22.1321H17.8124C17.4992 22.1321 17.2454 22.386 17.2454 22.6991V25.143C17.2454 25.4562 17.4992 25.71 17.8124 25.71H21.4783C21.7915 25.71 22.0453 25.4562 22.0453 25.143V22.6991C22.0453 22.386 21.7915 22.1321 21.4783 22.1321ZM20.9113 24.576H18.3794V23.2661H20.9113V24.576Z" fill="#292B36"/>
<path d="M22.6562 14.9855C22.6562 13.3254 21.3055 11.9746 19.6453 11.9746C17.985 11.9746 16.6343 13.3254 16.6343 14.9855C16.6343 16.6457 17.985 17.9965 19.6453 17.9965C21.3055 17.9965 22.6562 16.6458 22.6562 14.9855ZM17.7684 14.9855C17.7684 13.9507 18.6104 13.1087 19.6453 13.1087C20.6801 13.1087 21.5221 13.9507 21.5221 14.9855C21.5221 16.0204 20.6801 16.8625 19.6453 16.8625C18.6104 16.8625 17.7684 16.0205 17.7684 14.9855Z" fill="#292B36"/>
<path d="M38.4329 31.7551H37.4725V19.3266C37.4725 19.0134 37.2187 18.7595 36.9055 18.7595C36.5922 18.7595 36.3384 19.0134 36.3384 19.3266V31.7551H24.4892V20.2553C24.4892 19.9422 24.2354 19.6883 23.9221 19.6883H15.3684C15.0552 19.6883 14.8014 19.9422 14.8014 20.2553V31.7551H2.95214V30.2518C2.95214 29.9386 2.69834 29.6848 2.38511 29.6848C2.07188 29.6848 1.81808 29.9386 1.81808 30.2518V31.7551H0.85768C0.544452 31.7551 0.290649 32.009 0.290649 32.3221V34.9188C0.290649 35.232 0.544452 35.4859 0.85768 35.4859H38.4329C38.7461 35.4859 38.9999 35.232 38.9999 34.9188V32.3221C38.9999 32.009 38.7461 31.7551 38.4329 31.7551ZM15.9355 27.6195H16.7432C17.0565 27.6195 17.3103 27.3656 17.3103 27.0525C17.3103 26.7393 17.0565 26.4854 16.7432 26.4854H15.9355V20.8224H23.3552V31.7551H15.9355V27.6195ZM37.8659 34.3518H1.42471V32.8892H37.8659V34.3518Z" fill="#292B36"/>
</svg>
