<svg width="32" height="28" viewBox="0 0 32 28" fill="none" xmlns="http://www.w3.org/2000/svg">
<path d="M4.27063 15.7465L15.5783 27.0542C15.8135 27.2895 16.195 27.2894 16.4301 27.0541L27.7294 15.7465L28.565 14.9195C30.176 13.3085 30.9772 11.1719 30.9772 9.05264C30.9772 6.92473 30.176 4.79681 28.565 3.1858C25.343 -0.0362179 20.062 -0.0362179 16.8313 3.1858L16.0043 4.02146L15.1686 3.1858C11.9466 -0.0362179 6.66561 -0.0362179 3.44359 3.1858C1.82396 4.79681 1.02277 6.92472 1.02277 9.05264C1.02277 11.1719 1.82397 13.3085 3.44359 14.9195L4.27063 15.7465L15.5783 27.0542C15.8135 27.2895 16.195 27.2894 16.4301 27.0541L27.7294 15.7465" fill="#F171FC"/>
<path d="M4.27063 15.7465L15.5783 27.0542C15.8135 27.2895 16.195 27.2894 16.4301 27.0541L27.7294 15.7465L28.565 14.9195C30.176 13.3085 30.9772 11.1719 30.9772 9.05264C30.9772 6.92473 30.176 4.79681 28.565 3.1858C25.343 -0.0362179 20.062 -0.0362179 16.8313 3.1858L16.0043 4.02146L15.1686 3.1858C11.9466 -0.0362179 6.66561 -0.0362179 3.44359 3.1858C1.82396 4.79681 1.02277 6.92472 1.02277 9.05264C1.02277 11.1719 1.82397 13.3085 3.44359 14.9195L4.27063 15.7465ZM4.27063 15.7465L15.5783 27.0542C15.8135 27.2895 16.195 27.2894 16.4301 27.0541L27.7294 15.7465" stroke="#303030" stroke-miterlimit="10" stroke-linecap="round" stroke-linejoin="round"/>
<path d="M4 9.81104C4 10.2479 4.04064 10.6855 4.12213 11.1173" stroke="white" stroke-miterlimit="10" stroke-linecap="round" stroke-linejoin="round"/>
<path d="M9.60905 3C8.29395 3.25299 7.03948 3.88547 6.02751 4.89743C5.27942 5.64154 4.73981 6.51731 4.40625 7.45214" stroke="white" stroke-miterlimit="10" stroke-linecap="round" stroke-linejoin="round"/>
</svg>
