<svg width="198" height="46" viewBox="0 0 198 46" fill="none" xmlns="http://www.w3.org/2000/svg">
<path d="M85.4658 14.3231C78.8463 14.3231 74.0679 18.5018 74.0679 24.7039C74.0679 30.906 78.8463 35.0848 85.4658 35.0848C92.0416 35.0848 96.82 30.906 96.82 24.7039C96.82 18.5018 92.0416 14.3231 85.4658 14.3231ZM86.9563 33.3693C84.326 33.8091 82.2218 30.6861 81.3012 25.4517C80.3806 20.1733 81.2574 16.5224 83.9315 16.0386C86.6056 15.5547 88.7099 18.6778 89.6305 23.9562C90.5511 29.2346 89.6305 32.8854 86.9563 33.3693Z" fill="#292B36"/>
<path d="M115.771 14.3231C112.527 13.7953 110.423 15.5987 109.02 18.2819V14.3231C109.02 14.3231 108.582 14.3231 107.836 14.3231C105.162 16.6544 100.735 17.7541 98.1481 17.7541C98.1481 18.2379 98.1481 18.4139 98.1481 18.9417C101.524 18.9417 101.918 21.229 101.918 24.0002V28.4428C101.918 31.2139 101.524 33.5012 98.1481 33.5012C98.1481 34.0291 98.1481 34.6889 98.1481 34.6889H112.615C112.615 34.6889 112.615 34.425 112.615 33.5012C109.283 33.5012 109.02 31.2139 109.02 28.4428V21.141C109.195 19.1616 110.774 18.062 112.746 18.6778C114.456 19.2496 114.456 21.141 114.018 22.6806C115.464 23.2084 118.138 22.8125 119.191 20.2613C120.155 17.7541 118.928 14.851 115.771 14.3231Z" fill="#292B36"/>
<path d="M135.469 29.8064C134.811 30.906 133.89 31.4339 132.751 31.2579C131.699 31.038 130.953 30.4662 130.953 28.3988V16.4785H135.6V14.763H130.953V7.32926C130.953 7.32926 130.34 7.32926 129.594 7.32926C128.674 12.0798 124.772 14.5431 120.432 14.763C120.432 15.2908 120.432 16.4785 120.432 16.4785H123.851C123.851 17.842 123.851 28.0469 123.851 28.0469C123.851 32.7535 126.701 35.0848 130.208 35.0848C133.452 35.0848 135.162 32.9734 136.302 30.2462L135.469 29.8064Z" fill="#292B36"/>
<path d="M157.522 27.783C153.665 31.9617 145.204 31.2579 144.152 25.5837L157.698 23.2964C157.917 17.4902 153.971 14.3231 148.097 14.3231C141.521 14.3231 136.217 18.4579 136.831 25.5397C137.269 30.8181 141.653 35.0848 148.272 35.0848C153.665 35.0848 156.821 31.6978 158.268 28.3988C158.268 28.3548 157.522 27.783 157.522 27.783ZM147.308 15.9066C150.333 15.6427 151.297 18.4139 151.078 22.6366L143.889 23.8682C143.363 19.6895 144.546 16.1706 147.308 15.9066Z" fill="#292B36"/>
<path d="M170.41 28.4428V14.3231C170.41 14.3231 170.015 14.3231 169.226 14.3231C166.596 16.6984 162.124 17.7541 159.582 17.7541C159.582 18.2379 159.582 18.4139 159.582 18.9417C162.913 18.9417 163.352 21.229 163.352 24.0002V28.4428C163.352 31.2139 162.913 33.5012 159.582 33.5012C159.582 34.0291 159.582 34.6889 159.582 34.6889H174.048C174.048 34.6889 174.048 34.425 174.048 33.5012C170.673 33.5012 170.41 31.2139 170.41 28.4428ZM166.158 12.2558C168.569 12.2558 170.541 10.3643 170.541 8.07704C170.541 5.78974 168.569 3.89832 166.158 3.89832C163.746 3.89832 161.774 5.78974 161.774 8.07704C161.774 10.3643 163.746 12.2558 166.158 12.2558Z" fill="#292B36"/>
<path d="M185.9 14.3231C179.281 14.3231 174.502 18.5018 174.502 24.7039C174.502 30.906 179.281 35.0848 185.9 35.0848C192.476 35.0848 197.254 30.906 197.254 24.7039C197.254 18.5018 192.476 14.3231 185.9 14.3231ZM187.391 33.3693C184.76 33.8091 182.656 30.6861 181.736 25.4517C180.815 20.1733 181.692 16.5224 184.366 16.0386C187.04 15.5547 189.144 18.6778 190.065 23.9562C190.985 29.2346 190.065 32.8854 187.391 33.3693Z" fill="#292B36"/>
<path d="M62.0892 18.7518C57.2977 15.9998 49.1015 12.9919 49.4168 7.80792C49.6059 3.96796 53.4518 2.04798 57.3607 2.43197C63.3502 3.00797 66.0612 6.59193 67.7635 14.3998H69.7179L68.7092 0C68.7092 0 68.0157 0 67.4482 0C66.5656 3.64796 64.2959 0.703991 57.3607 0.128001C50.9299 -0.319996 41.2206 1.27998 40.6532 11.3279C40.2119 19.8398 48.1558 23.4877 54.3975 26.8157C61.2066 30.3357 65.6199 32.3196 64.6742 37.7596C64.0437 41.1516 60.5131 43.9675 54.8388 43.6475C50.4255 43.3915 47.3362 41.7915 46.7688 38.8476C45.9492 34.6236 48.8493 33.0236 51.6234 33.2156C51.6234 30.7837 49.1646 27.3917 44.9404 26.9437C40.2749 26.4957 36.4921 30.3997 37.6269 35.9676C38.8248 41.9835 46.6427 45.4395 54.5866 45.9515C62.7828 46.4635 72.5551 42.9435 73.8791 34.3676C75.3292 25.4077 68.1418 22.0798 62.0892 18.7518Z" fill="#292B36"/>
<path d="M13.7154 21.3114C10.6514 19.6002 8.69745 18.7896 8.91948 17.0334C9.0527 15.7725 10.1629 15.2321 11.7171 15.4573C14.0263 15.7275 15.0476 17.1235 15.8025 20.771H16.8683L16.4243 13.7911C16.4243 13.7911 15.9358 13.7911 15.6693 13.7911C15.2697 15.5023 14.6036 14.1514 11.7171 13.7911C7.80932 13.3408 3.41304 14.3315 2.88015 18.6996C2.39168 23.0226 6.3883 25.004 9.31915 26.5351C12.4276 28.1562 14.4259 28.8767 14.1151 31.2183C13.9375 32.6593 12.028 33.56 9.63 33.4249C7.85372 33.2898 5.81101 32.7494 5.54457 31.5336C5.27813 30.1826 6.16627 29.2369 7.45407 29.327C7.40966 27.5257 6.47711 25.8596 4.21236 25.5444C1.50354 25.1391 -0.539168 27.6608 0.126935 30.4078C0.837445 33.3798 5.81101 34.8659 9.49678 35.046C14.0263 35.3162 19.666 34.2354 20.5541 29.8224C21.5755 24.7788 16.8239 23.0676 13.7154 21.3114Z" fill="#292B36"/>
<path d="M32.1786 28.2463V13.7911C32.1786 13.7911 31.779 13.7911 30.9796 13.7911C28.3152 16.2228 23.7857 17.3036 21.2101 17.3036C21.2101 17.7989 21.2101 17.9791 21.2101 18.5194C24.5851 18.5194 25.0291 20.8611 25.0291 23.6981V28.2463C25.0291 31.0832 24.5851 33.4249 21.2101 33.4249C21.2101 33.9653 21.2101 34.6407 21.2101 34.6407H35.8644C35.8644 34.6407 35.8644 34.3705 35.8644 33.4249C32.4451 33.4249 32.1786 31.0832 32.1786 28.2463ZM27.8712 11.6746C30.3135 11.6746 32.3119 9.73829 32.3119 7.39665C32.3119 5.05501 30.3135 3.11865 27.8712 3.11865C25.4288 3.11865 23.4305 5.05501 23.4305 7.39665C23.4305 9.73829 25.4288 11.6746 27.8712 11.6746Z" fill="#292B36"/>
</svg>
