<svg width="106" height="111" viewBox="0 0 106 111" fill="none" xmlns="http://www.w3.org/2000/svg">
<path d="M93.9333 73.8732C94.7517 72.1167 95.5274 70.3105 96.2574 68.4537C96.5858 67.6183 96.1748 66.6751 95.3395 66.3466C94.5046 66.019 93.5608 66.4292 93.2326 67.2645C92.476 69.1895 91.6686 71.0563 90.814 72.8668C89.42 72.5459 87.969 72.376 86.4787 72.376C86.0399 72.376 85.605 72.392 85.1736 72.4211C86.3343 70.2305 87.4495 67.8815 88.506 65.3582C95.3195 49.0839 96.7777 32.5303 95.8702 22.465C95.7672 21.3229 95.161 20.2947 94.2069 19.6434C93.2432 18.9856 92.0478 18.7948 90.9278 19.1207C77.0966 23.1395 63.3191 20.2764 54.9719 11.6488C54.3332 10.9886 53.5101 10.4754 52.1581 10.4752C50.807 10.475 49.9828 10.9893 49.3443 11.6496C48.0361 13.0027 46.584 14.2315 45.0283 15.3025C44.289 15.8111 44.1021 16.8231 44.611 17.5624C45.12 18.3016 46.1316 18.4889 46.8711 17.9797C48.6046 16.7864 50.223 15.4167 51.6809 13.9087C51.7774 13.8091 52.017 13.5238 52.1468 13.5238C52.3188 13.5238 52.5397 13.8091 52.6362 13.9087C57.3914 18.8239 63.7412 22.1296 70.9994 23.4681C77.6488 24.6946 84.8534 24.2701 91.8351 22.2419C92.0871 22.1682 92.2813 22.2638 92.3747 22.3278C92.4623 22.3874 92.6121 22.5227 92.6334 22.757C93.5058 32.4338 92.0923 48.3771 85.5083 64.103C84.3068 66.9725 82.8317 70.0532 81.0414 73.1564C73.6597 75.3261 68.1001 81.7952 67.2739 89.6543C63.5322 92.6565 59.2209 95.1896 54.2615 96.9352C53.5896 97.1716 52.8859 97.2917 52.1703 97.2919H52.1687C51.454 97.2919 50.7509 97.1722 50.0795 96.9359C33.1133 90.9696 23.7177 75.7931 18.8233 64.1123C12.235 48.3886 10.8167 32.4455 11.6863 22.7685C11.7073 22.5342 11.8574 22.3991 11.9447 22.3395C12.038 22.2755 12.2326 22.1797 12.4846 22.2532C21.9415 24.9981 31.6651 24.7828 39.8644 21.6468C40.7027 21.3262 41.1222 20.3868 40.8016 19.5484C40.481 18.7103 39.5418 18.2908 38.7032 18.6112C31.1613 21.4959 22.1715 21.6809 13.3903 19.1317C12.2697 18.8068 11.0745 18.9973 10.1111 19.6557C9.15737 20.3072 8.55163 21.3359 8.44887 22.4776C7.54418 32.5429 9.00691 49.0962 15.8252 65.3684C25.1534 87.6314 39.015 96.4906 49.0007 100.002C50.0196 100.36 51.0854 100.542 52.1685 100.542H52.1707C53.2545 100.542 54.3209 100.36 55.3401 100.001C58.945 98.7321 63.0552 96.7633 67.2743 93.721C67.5065 95.9274 68.1107 98.0244 69.0245 99.9476C64.7187 103.009 60.0363 105.455 55.012 107.256C53.1803 107.913 51.1628 107.913 49.3309 107.257C40.1037 103.952 32.0265 98.4806 25.3242 90.9946C19.395 84.372 14.5242 76.1738 10.8469 66.6278C4.8509 51.0602 2.16131 31.6752 3.65266 14.7728C3.68669 14.3876 3.88983 14.0413 4.21004 13.8235C4.39432 13.6979 4.7774 13.5091 5.26997 13.6552C9.29677 14.8461 13.3903 15.5301 17.4367 15.6881C30.9362 16.2139 43.563 11.719 51.2153 3.65781C51.465 3.39462 51.7993 3.2498 52.157 3.2498C52.5145 3.24958 52.849 3.3944 53.0986 3.65738C60.3455 11.2867 72.0491 15.7211 84.7296 15.7207C85.4433 15.7207 86.1613 15.7068 86.8807 15.6784C90.9272 15.519 95.0205 14.834 99.0467 13.642C99.5397 13.4959 99.9226 13.6845 100.107 13.81C100.427 14.0279 100.631 14.3739 100.665 14.7592C101.955 29.3408 100.151 45.8987 95.7134 60.188C95.4472 61.0452 95.9263 61.956 96.7835 62.222C97.6405 62.4889 98.5513 62.0093 98.8175 61.1521C103.376 46.4736 105.229 29.4598 103.902 14.4728C103.782 13.1124 103.065 11.8914 101.935 11.1228C100.812 10.3588 99.4231 10.1409 98.1242 10.5257C94.3563 11.6412 90.5302 12.2822 86.7527 12.431C74.1759 12.9248 62.4753 8.80979 55.4554 1.41937C54.586 0.503838 53.4145 -0.000216728 52.1568 6.99056e-08C50.899 6.99056e-08 49.7276 0.504488 48.8582 1.42046C41.8405 8.81239 30.1408 12.9329 17.5639 12.4403C13.7864 12.2926 9.9606 11.6527 6.19201 10.5383C4.89296 10.1542 3.50415 10.3723 2.38135 11.1365C1.25184 11.9054 0.535105 13.1267 0.415216 14.4871C-1.11776 31.8595 1.64836 51.7882 7.81452 67.7963C11.6338 77.7114 16.7104 86.2458 22.9032 93.1628C29.9704 101.056 38.4931 106.828 48.2352 110.317C49.5043 110.771 50.8372 110.999 52.1707 110.999C53.5049 110.999 54.8395 110.771 56.109 110.316C61.3243 108.446 66.1893 105.92 70.6694 102.766C74.1665 107.742 79.949 111 86.4789 111C97.1276 111 105.791 102.337 105.791 91.6879C105.791 83.6802 100.892 76.7958 93.9333 73.8732ZM86.4789 107.75C77.6223 107.75 70.417 100.544 70.417 91.6879C70.417 82.8313 77.6223 75.626 86.4789 75.626C95.3355 75.626 102.541 82.8313 102.541 91.6879C102.541 100.544 95.3355 107.75 86.4789 107.75Z" fill="#979797"/>
<path d="M97.9983 86.6429C97.9057 85.2298 97.2683 83.9375 96.2038 83.0035C94.0064 81.0766 90.6501 81.296 88.7221 83.4937L84.2609 88.5804L84.046 88.3599C82.0053 86.2669 78.6421 86.2236 76.549 88.2637C74.4556 90.3042 74.4124 93.6671 76.4527 95.7605L80.6694 100.087C81.6613 101.105 83.0451 101.688 84.466 101.688C84.5124 101.688 84.559 101.688 84.6056 101.686C86.0785 101.647 87.4803 100.99 88.452 99.8823L96.6938 90.4847C97.6278 89.4205 98.0908 88.056 97.9983 86.6429ZM94.2505 88.3421L86.0087 97.7394C85.2432 98.6125 83.8073 98.6502 82.9972 97.8188C82.9959 97.8175 78.7911 93.5032 78.7805 93.4924C77.5508 92.2306 78.4932 90.0102 80.2486 90.01C81.49 90.0097 82.368 91.2951 83.16 92.1077C83.4763 92.432 83.916 92.6122 84.3665 92.5977C84.8194 92.5857 85.2467 92.3854 85.5454 92.0448L91.1652 85.6369C91.9112 84.7862 93.2101 84.7012 94.0604 85.4472C94.4723 85.8084 94.7188 86.3086 94.7548 86.8553C94.791 87.4021 94.6117 87.93 94.2505 88.3421Z" fill="#F171FC"/>
<path d="M56.896 51.119C52.4476 48.6089 44.8464 45.8648 45.143 41.1251C45.3147 37.6171 48.889 35.8709 52.5101 36.2139C58.0666 36.744 60.5795 40.0182 62.1559 47.1433H63.9665L63.03 34C63.03 34 62.39 34 61.8594 34C61.0477 37.3365 58.9406 34.6392 52.4945 34.1091C46.5321 33.7038 37.5262 35.1537 36.9955 44.3369C36.5897 52.1013 43.9568 55.4378 49.7474 58.478C56.0687 61.6898 60.1581 63.4984 59.284 68.4719C58.7065 71.5745 55.4288 74.1315 50.1532 73.8508C46.0639 73.617 43.192 72.1514 42.6613 69.4697C41.8965 65.6187 44.5967 64.1532 47.1721 64.3247C47.1721 62.1107 44.8933 59.0081 40.9756 58.6027C36.6522 58.1974 33.1403 61.7522 34.1861 66.8349C35.2942 72.3229 42.552 75.4879 49.9191 75.9556C57.5203 76.4234 66.5886 73.2116 67.8217 65.3849C69.1796 57.1996 62.5149 54.1593 56.896 51.119Z" fill="#F171FC"/>
</svg>
