<svg width="111" height="100" viewBox="0 0 111 100" fill="none" xmlns="http://www.w3.org/2000/svg">
<path d="M107.184 30.66H106.124L96.1904 3.91491C95.3206 1.57329 93.0581 0 90.5602 0H20.4394C17.9416 0 15.6789 1.57329 14.8091 3.91491L4.87554 30.66H3.81605C1.71182 30.66 0 32.3718 0 34.4761V37.542C0 39.6462 1.71182 41.358 3.81605 41.358H4.38016V76.9972C4.38016 77.8952 5.10794 78.6232 6.00613 78.6232C6.90432 78.6232 7.6321 77.8952 7.6321 76.9972V41.358H33.1621C34.5907 41.358 35.934 40.8017 36.9445 39.7913L55.4999 21.2354L74.0557 39.7913C75.066 40.8015 76.4093 41.3578 77.8379 41.3578H103.368V45.6686C103.368 46.5666 104.096 47.2946 104.994 47.2946C105.892 47.2946 106.62 46.5666 106.62 45.6686V41.3578H107.184C109.288 41.3578 111 39.646 111 37.5418V34.4758C111 32.3718 109.288 30.66 107.184 30.66ZM17.8575 5.04702C18.2564 3.97323 19.294 3.25195 20.4394 3.25195H90.5602C91.7056 3.25195 92.7431 3.97345 93.142 5.04702L102.655 30.66H80.0536L59.2821 9.88874C58.2719 8.87846 56.9288 8.32195 55.4999 8.32195C54.071 8.32195 52.7279 8.87825 51.7177 9.88874L30.9462 30.66H8.34428L17.8575 5.04702ZM107.748 37.542C107.748 37.8531 107.495 38.1061 107.184 38.1061H77.8379C77.2777 38.1061 76.7509 37.888 76.3551 37.4919L56.6496 17.7864C56.3445 17.4814 55.9311 17.3101 55.4997 17.3101C55.0682 17.3101 54.655 17.4814 54.3498 17.7864L34.6445 37.4919C34.2484 37.888 33.7216 38.1061 33.1614 38.1061H3.81605C3.50495 38.1061 3.25195 37.8531 3.25195 37.542V34.4761C3.25195 34.165 3.50495 33.912 3.81605 33.912H31.6198C32.051 33.912 32.4644 33.7407 32.7697 33.4357L54.0174 12.1881C54.4133 11.792 54.9399 11.5739 55.5001 11.5739C56.0603 11.5739 56.5869 11.792 56.9828 12.1881L78.2306 33.4357C78.5356 33.7407 78.949 33.912 79.3805 33.912H107.184C107.495 33.912 107.748 34.165 107.748 34.4761V37.542H107.748Z" fill="#878787"/>
<path d="M97.7669 86.4718C98.6651 86.4718 99.3929 85.7438 99.3929 84.8458V55.938C99.3929 55.04 98.6651 54.312 97.7669 54.312H75.8668C74.9686 54.312 74.2408 55.04 74.2408 55.938V84.8458C74.2408 85.7438 74.9686 86.4718 75.8668 86.4718H97.7669ZM96.141 76.2119H88.4427V68.5139H96.141V76.2119ZM85.1908 76.2119H77.4928V68.5139H85.1908V76.2119ZM96.141 83.2199H77.4928V79.4639H96.141V83.2199ZM96.141 65.2617H88.4427V57.5637H96.141V65.2617ZM85.1908 57.564V65.262H77.4928V57.564H85.1908Z" fill="#F171FC"/>
<path d="M35.133 86.4718C36.0312 86.4718 36.759 85.7438 36.759 84.8458V55.938C36.759 55.04 36.0312 54.312 35.133 54.312H13.2329C12.3347 54.312 11.6069 55.04 11.6069 55.938V84.8458C11.6069 85.7438 12.3347 86.4718 13.2329 86.4718H35.133ZM33.5071 76.2119H25.8091V68.5139H33.5071V76.2119ZM22.5571 76.2119H14.8589V68.5139H22.5571V76.2119ZM33.5071 83.2199H14.8589V79.4639H33.5071V83.2199ZM33.5071 65.2617H25.8091V57.5637H33.5071V65.2617ZM22.5571 57.564V65.262H14.8589V57.564H22.5571Z" fill="#F171FC"/>
<path d="M60.7559 61.3198H50.2439C49.3457 61.3198 48.6179 62.0478 48.6179 62.9458V69.9537C48.6179 70.8517 49.3457 71.5797 50.2439 71.5797H60.7559C61.6541 71.5797 62.3819 70.8517 62.3819 69.9537V62.9458C62.3819 62.0478 61.6541 61.3198 60.7559 61.3198ZM59.1299 68.3278H51.8699V64.5718H59.1299V68.3278Z" fill="#878787"/>
<path d="M64.1338 40.8268C64.1338 36.0662 60.2607 32.1929 55.4999 32.1929C50.739 32.1929 46.866 36.0662 46.866 40.8268C46.866 45.5874 50.739 49.4609 55.4999 49.4609C60.2607 49.4609 64.1338 45.5876 64.1338 40.8268ZM50.1179 40.8268C50.1179 37.8593 52.5324 35.4448 55.4999 35.4448C58.4674 35.4448 60.8819 37.8593 60.8819 40.8268C60.8819 43.7943 58.4674 46.209 55.4999 46.209C52.5324 46.209 50.1179 43.7945 50.1179 40.8268Z" fill="#F171FC"/>
<path d="M109.374 88.9136H106.62V53.2744C106.62 52.3764 105.892 51.6484 104.994 51.6484C104.096 51.6484 103.368 52.3764 103.368 53.2744V88.9136H69.3898V55.9378C69.3898 55.0398 68.662 54.3118 67.7639 54.3118H43.2359C42.3377 54.3118 41.61 55.0398 41.61 55.9378V88.9136H7.63189V84.6028C7.63189 83.7048 6.9041 82.9768 6.00591 82.9768C5.10772 82.9768 4.37994 83.7048 4.37994 84.6028V88.9136H1.62597C0.727786 88.9136 0 89.6416 0 90.5396V97.9856C0 98.8836 0.727786 99.6116 1.62597 99.6116H109.374C110.272 99.6116 111 98.8836 111 97.9856V90.5396C111 89.6416 110.272 88.9136 109.374 88.9136ZM44.8619 77.0546H47.1782C48.0764 77.0546 48.8041 76.3266 48.8041 75.4286C48.8041 74.5307 48.0764 73.8027 47.1782 73.8027H44.8619V57.5637H66.1381V88.9136H44.8619V77.0546ZM107.748 96.3597H3.25195V92.1655H107.748V96.3597Z" fill="#878787"/>
</svg>
