<svg width="62" height="61" viewBox="0 0 62 61" fill="none" xmlns="http://www.w3.org/2000/svg">
<path d="M47.5259 33.7594C47.8782 33.4069 47.878 32.8356 47.5255 32.4833C47.1729 32.1311 46.6016 32.1313 46.2493 32.4838C45.97 32.7634 45.5982 32.9174 45.2024 32.9174C44.8067 32.9174 44.4348 32.7634 44.1554 32.4838C43.8031 32.1313 43.2318 32.131 42.8793 32.4833C42.5268 32.8356 42.5265 33.4069 42.8788 33.7594C43.4991 34.3802 44.3242 34.722 45.2024 34.722C46.0805 34.722 46.9057 34.3802 47.5259 33.7594Z" fill="#979797"/>
<path d="M42.7923 27.7538C41.8844 26.8781 40.4074 26.8782 39.4995 27.7538C39.1409 28.0997 39.1305 28.6709 39.4765 29.0296C39.8224 29.3884 40.3937 29.3985 40.7523 29.0526C40.9656 28.847 41.3261 28.8468 41.5395 29.0526C41.7146 29.2215 41.9403 29.3055 42.1657 29.3055C42.4021 29.3055 42.6382 29.2131 42.8153 29.0296C43.1613 28.6711 43.151 28.0998 42.7923 27.7538Z" fill="#979797"/>
<path d="M48.8646 29.0528C49.0789 28.8461 49.4409 28.8461 49.6552 29.0528C49.8302 29.2217 50.0559 29.3056 50.2814 29.3056C50.5178 29.3056 50.7539 29.2132 50.931 29.0298C51.277 28.6711 51.2666 28.0999 50.908 27.754C49.9993 26.8774 48.5205 26.8774 47.6118 27.754C47.2532 28.0999 47.2428 28.6711 47.5888 29.0298C47.9347 29.3884 48.506 29.3986 48.8646 29.0528Z" fill="#979797"/>
<path d="M28.2666 46.3995C28.7649 46.3995 29.1689 45.9955 29.1689 45.4972V44.9231C29.1689 44.4248 28.7649 44.0208 28.2666 44.0208C27.7683 44.0208 27.3643 44.4248 27.3643 44.9231V45.4972C27.3643 45.9955 27.7683 46.3995 28.2666 46.3995Z" fill="#979797"/>
<path d="M33.3779 46.3995C33.8762 46.3995 34.2803 45.9955 34.2803 45.4972V44.9231C34.2803 44.4248 33.8762 44.0208 33.3779 44.0208C32.8796 44.0208 32.4756 44.4248 32.4756 44.9231V45.4972C32.4757 45.9955 32.8796 46.3995 33.3779 46.3995Z" fill="#979797"/>
<path d="M61.5739 54.863L60.4947 46.5137C60.3263 45.2035 59.9256 44.0497 59.3012 43.0849C59.0305 42.6662 58.4723 42.5459 58.0536 42.8166C57.6349 43.0873 57.5146 43.6456 57.7853 44.0642C58.2689 44.8114 58.5685 45.6872 58.7045 46.7448L59.7596 54.9089H53.6212V51.0753C53.6212 50.5769 53.2172 50.1729 52.7189 50.1729C52.2205 50.1729 51.8165 50.5769 51.8165 51.0753V54.9089H40.3419C39.3938 53.4254 37.7095 52.8022 36.1949 52.3739C36.1828 52.3703 36.1708 52.3667 36.16 52.3643C35.923 52.2969 35.6896 52.2355 35.4658 52.1754C35.3202 52.1369 35.177 52.0984 35.0375 52.0599C34.8739 52.0154 34.7379 51.794 34.6308 51.5606C36.8301 50.0483 38.4626 47.4774 38.4626 45.2323V43.1979C38.4626 42.3677 38.376 41.5797 38.2039 40.8398C38.4987 40.758 39.2843 40.5486 39.3818 40.5234L43.4975 43.3121C43.9294 43.6321 44.5069 43.9894 45.2023 43.987C45.8929 43.9954 46.4752 43.6321 46.9071 43.3121L51.0241 40.5222C51.1047 40.545 51.1877 40.5667 51.2695 40.5883C52.5207 40.9204 53.8152 41.2633 54.9677 41.7902C55.4213 41.996 55.9567 41.7963 56.1636 41.3439C56.3706 40.8903 56.1708 40.3549 55.7173 40.148C54.4251 39.5585 53.0561 39.1951 51.7327 38.8438C51.5215 38.7873 51.3108 38.7291 51.1 38.6715C50.6127 38.5386 50.3175 37.9251 50.1145 37.4057C53.3497 35.3094 55.7869 31.5831 55.7869 28.3454V21.2761C55.7869 17.6454 53.0403 14.3645 48.7899 12.9177C47.0087 12.3114 45.122 12.1103 43.4781 12.3514C41.7625 12.603 40.354 13.3114 39.3789 14.4084C37.389 14.7207 34.4973 16.2619 34.5958 22.5958C34.5968 22.6564 34.5976 28.3454 34.5976 28.3454C34.5976 31.5817 37.0444 35.3102 40.2911 37.408C40.0879 37.9281 39.7924 38.5385 39.3049 38.6717C39.2817 38.678 39.2593 38.686 39.2371 38.6939C39.0349 38.7479 37.9612 39.034 37.6207 39.1291C37.2429 38.3206 36.7412 37.5975 36.1204 36.9755C34.75 35.5992 32.9046 34.8232 30.9255 34.7907H30.8966C28.9163 34.8232 27.0708 35.5992 25.6993 36.9755C24.9786 37.6986 24.4204 38.56 24.0282 39.5321C23.3075 39.2879 21.5726 38.8139 21.5726 38.8139C21.0781 38.6791 20.7834 38.0403 20.5813 37.5169C22.9887 35.6846 24.7295 32.8105 24.7295 30.2851V27.8091C24.7295 27.3351 24.3625 26.9417 23.8897 26.908C22.5615 26.8154 22.0622 26.304 21.5328 25.7638C20.9553 25.1743 20.1649 24.367 18.5516 24.7845C18.1305 24.8928 17.772 24.9878 17.4628 25.0709C16.5617 25.3115 16.1093 25.4318 15.7351 25.4318C15.3598 25.4318 14.9074 25.3115 14.0063 25.0709C13.6971 24.9878 13.3397 24.8928 12.9186 24.7845C11.3017 24.3682 10.5112 25.1755 9.93384 25.765C9.40447 26.3052 8.90518 26.8154 7.57935 26.908C7.10653 26.9417 6.74078 27.3351 6.74078 27.8091V30.2851C6.74078 32.8093 8.48048 35.6846 10.8878 37.5169C10.6869 38.0415 10.3921 38.6791 9.89642 38.8139L9.64377 38.8837C7.57683 39.4455 5.34638 40.0531 3.71977 41.635C3.32996 41.5087 2.01376 41.2236 1.88503 41.1923C1.94518 41.0624 2.05226 40.8675 2.23874 40.5919C4.24914 37.624 5.06954 33.3132 5.06954 25.7122C5.06954 21.7036 6.7936 19.0327 8.4658 18.7656C8.49107 18.762 8.51633 18.7584 8.5404 18.7548C8.78463 18.7211 9.35851 18.6417 9.67493 18.0341C10.7758 15.9154 13.929 14.7317 17.3446 15.154C20.7674 15.5775 24.8375 17.7659 25.9924 22.6372C26.1957 23.5046 26.322 24.4539 26.4002 25.7134C26.4002 27.7431 26.4363 30.1299 26.6938 32.4664C26.7491 32.9621 27.1943 33.3194 27.69 33.264C28.1856 33.2099 28.543 32.7635 28.4876 32.2691C28.2386 30.0084 28.2049 27.6721 28.2049 25.6858C28.2049 25.6677 28.2037 25.6485 28.2025 25.6304C28.1183 24.2517 27.9787 23.2013 27.7489 22.2233C26.3798 16.4497 21.5915 13.8607 17.566 13.3627C13.4635 12.8549 9.73749 14.3047 8.19402 16.9815C8.18801 16.9827 8.18199 16.9839 8.17597 16.9851C5.32941 17.4399 3.265 21.1105 3.265 25.7122C3.265 32.9199 2.53471 36.937 0.745681 39.5789C0.247593 40.314 -0.218011 41.1719 0.109235 41.9671C0.431669 42.7515 1.26663 42.9164 1.93796 43.0475L2.0667 43.074C2.23152 43.1064 2.38672 43.1401 2.53471 43.1762C2.02098 44.081 1.64561 45.1975 1.46634 46.5917L0.400388 54.8689C0.352264 55.2443 0.330608 55.7929 0.713197 56.2272C1.1391 56.7133 1.79479 56.7133 2.04263 56.7133H20.8072C20.7519 57.0489 20.7218 57.4123 20.7218 57.8045V59.561C20.7218 60.3539 21.3666 61 22.1607 61H39.6573C40.4514 61 41.0962 60.3539 41.0962 59.561V57.8045C41.0962 57.4123 41.0673 57.0489 41.0108 56.7133H59.922C60.3455 56.7133 60.8797 56.6579 61.2587 56.226C61.6425 55.7906 61.622 55.2396 61.5739 54.863ZM45.8797 41.8287C45.8688 41.836 45.858 41.8432 45.8472 41.8516C45.479 42.1247 45.2998 42.1825 45.2143 42.1825H45.2023C45.1975 42.1825 45.1939 42.1837 45.1903 42.1825C45.1049 42.1825 44.9256 42.1247 44.5575 41.8516C44.5466 41.8432 44.537 41.836 44.525 41.8287L41.1397 39.5343C41.4834 39.1359 41.7181 38.6768 41.8875 38.2733C42.0781 38.3574 42.2697 38.4377 42.4633 38.5095C43.4666 38.8816 44.3375 39.055 45.204 39.055C46.072 39.055 46.9423 38.8815 47.9413 38.5095C48.1353 38.4375 48.3273 38.357 48.5182 38.2726C48.6874 38.6755 48.922 39.135 49.2656 39.5338L45.8797 41.8287ZM39.924 16.1588C40.1752 16.1365 40.4056 16.0103 40.5595 15.8105C41.5252 14.5563 43.1491 14.0552 44.8699 14.0552C45.9935 14.0552 47.1587 14.2688 48.2083 14.6262C50.8719 15.5327 53.9823 17.8184 53.9823 21.2761V24.987H53.123C51.6836 24.987 50.7848 24.1439 49.6467 23.0765C48.2741 21.789 46.7182 20.3296 43.9381 20.3296H40.8697C38.427 20.3296 38.0249 22.2938 37.7588 23.5936C37.4758 24.9754 37.2791 25.5443 36.4023 25.6694C36.4023 25.6694 36.4014 22.6398 36.4002 22.5677C36.3569 19.79 36.9332 16.4234 39.924 16.1588ZM36.4022 28.3455V27.4819C38.8468 27.2693 39.2534 25.2904 39.5266 23.9556C39.8289 22.4795 39.989 22.1344 40.8696 22.1344H43.938C46.0042 22.1344 47.1737 23.2314 48.412 24.3929C49.6108 25.5173 50.9696 26.7918 53.1229 26.7918H53.9821V28.3455C53.9821 31.5406 50.866 35.4995 47.3126 36.818C46.5203 37.113 45.8502 37.2504 45.204 37.2504C44.5584 37.2504 43.887 37.1129 43.091 36.8175C39.5277 35.4955 36.4022 31.5365 36.4022 28.3455ZM25.5319 40.6871C26.4114 37.9453 28.7249 36.6376 30.9109 36.5955C32.8082 36.6315 34.8029 37.6217 35.87 39.6741C36.1311 40.177 36.338 40.7425 36.4728 41.3741C36.5197 41.5894 36.5582 41.8132 36.5871 42.0442C36.3308 41.9167 36.1395 41.7519 35.9554 41.569C35.9013 41.5161 35.8472 41.4619 35.7918 41.4054C35.4044 41.0108 34.9087 40.5042 34.0533 40.4597C33.6778 40.437 33.3054 40.5147 32.9445 40.6108C32.5831 40.7071 32.2241 40.8124 31.8621 40.9067C31.4773 41.007 31.0827 41.1212 30.6817 41.0677C30.1084 40.9911 29.5442 40.7961 28.9864 40.6491C28.3874 40.4911 27.7864 40.3611 27.1825 40.5729C26.7199 40.7352 26.364 41.0627 26.0274 41.4066C25.7868 41.652 25.5642 41.8794 25.2345 42.0442C25.2709 41.753 25.3412 41.2544 25.5319 40.6871ZM25.1638 43.9715C26.3055 43.6996 26.8999 43.0956 27.3174 42.6685C27.4523 42.5304 27.6102 42.3207 27.8073 42.2684C28.0078 42.2151 28.2566 42.3226 28.4464 42.3727C28.9893 42.5158 29.5298 42.6768 30.0795 42.7921C30.5242 42.8854 30.9695 42.9149 31.4208 42.8496C31.9468 42.7734 32.4611 42.6147 32.9738 42.4784C33.1348 42.4356 33.2959 42.393 33.457 42.3508C33.5977 42.314 33.7453 42.2619 33.8919 42.2569C34.1513 42.2484 34.3383 42.5007 34.502 42.6684C34.9207 43.0943 35.515 43.6995 36.6579 43.9714V45.2322C36.6579 47.2859 34.5621 49.9339 32.2595 50.7869C31.8516 50.9385 31.4931 51.0275 31.143 51.054C30.6365 51.0949 30.148 51.0058 29.5573 50.7857C29.4935 50.7616 29.431 50.7375 29.3672 50.7111C27.1439 49.7883 25.1637 47.2306 25.1637 45.2322V43.9715H25.1638ZM33.8285 53.4325L31.3537 54.8859C31.3428 54.8931 31.3308 54.8991 31.32 54.9063C31.3188 54.9075 31.3176 54.9075 31.3164 54.9087C30.9181 55.1662 30.9013 55.1662 30.4959 54.9051C30.485 54.8991 30.4754 54.8931 30.4646 54.8859L28.9438 53.9932L27.9898 53.4337C28.3579 53.1462 28.6046 52.766 28.7766 52.4171C28.8271 52.4375 28.8777 52.4592 28.9294 52.4784C28.9968 52.5037 29.0641 52.5278 29.1303 52.5506C29.7547 52.7636 30.331 52.8707 30.9085 52.8707H30.9097C31.5474 52.8707 32.185 52.7395 32.8876 52.4784C32.9394 52.4592 32.9899 52.4375 33.0416 52.4171C33.2137 52.766 33.4603 53.1462 33.8285 53.4325ZM8.54557 30.2853V28.5949C9.98329 28.2941 10.7136 27.5482 11.2225 27.0272C11.7386 26.5003 11.8625 26.3751 12.4689 26.5328C12.884 26.6386 13.2365 26.7325 13.5421 26.8143C14.5623 27.0862 15.1242 27.2366 15.7354 27.2366C16.3465 27.2366 16.9084 27.0862 17.9286 26.8143C18.233 26.7325 18.5855 26.6386 19.0018 26.5315C19.6058 26.3763 19.7285 26.5003 20.2434 27.0272C20.7535 27.547 21.485 28.2941 22.925 28.5949V30.2853C22.925 32.8996 20.3649 36.1443 17.4474 37.2283C16.8013 37.4689 16.2563 37.5796 15.7354 37.5796C15.2108 37.5796 14.6658 37.4689 14.0197 37.2295C11.1034 36.1442 8.54557 32.8995 8.54557 30.2853ZM19.7403 39.6753L16.3897 41.9444C16.3789 41.9516 16.3681 41.96 16.3573 41.9672C15.7761 42.4003 15.6943 42.4003 15.1132 41.9672C15.1024 41.96 15.0916 41.9516 15.0795 41.9444L11.7302 39.6753C12.049 39.3035 12.2716 38.88 12.4364 38.4975C12.7492 38.6587 13.0681 38.8006 13.3917 38.9209C14.2459 39.2374 14.9906 39.3841 15.7354 39.3841C16.4777 39.3841 17.2212 39.2374 18.0754 38.9209C18.4003 38.7994 18.7191 38.6575 19.0331 38.4975C19.1977 38.8788 19.4203 39.3035 19.7403 39.6753ZM21.4788 54.9087H9.30233V51.0745C9.30233 50.5764 8.89808 50.1722 8.39999 50.1722C7.90191 50.1722 7.49766 50.5764 7.49766 51.0745V54.9087H2.21504L3.25693 46.8215C3.45665 45.2731 3.91744 44.17 4.57915 43.3483C4.62968 43.3026 4.673 43.2508 4.7127 43.1931C5.94589 41.7854 7.8142 41.2525 9.97138 40.6641L14.0522 43.4277C14.6574 43.8752 15.1964 44.0978 15.7354 44.0978C16.2744 44.0978 16.8134 43.8752 17.4185 43.4277L21.4981 40.6641C22.2056 40.8578 22.8841 41.0455 23.5302 41.2681C23.4183 41.8817 23.3594 42.5253 23.3594 43.1979V45.2323C23.3594 47.4786 24.9908 50.0483 27.1875 51.5606C27.0805 51.794 26.9457 52.0142 26.7833 52.0599C26.6401 52.0984 26.4957 52.1369 26.3502 52.1766C26.1264 52.2355 25.8966 52.2969 25.6608 52.3631C25.6464 52.3679 25.6307 52.3715 25.6163 52.3763C24.1038 52.8045 22.4256 53.4301 21.4788 54.9087ZM39.2917 59.1953H22.5267V57.8045C22.5267 55.6064 23.7274 54.8426 25.7617 54.2181L29.1135 56.1864C29.2807 56.3946 29.5394 56.5726 29.9316 56.6581C30.2721 56.8241 30.5921 56.9071 30.9109 56.9071C31.1912 56.9071 31.4728 56.8421 31.7675 56.7134C31.9348 56.6412 32.1056 56.5474 32.2825 56.4331L34.8788 54.9087L36.059 54.2157C36.7244 54.4167 37.3018 54.632 37.7759 54.9087C38.4821 55.319 38.9621 55.8664 39.1727 56.7134C39.2509 57.0322 39.2918 57.3932 39.2918 57.8046V59.1953H39.2917Z" fill="#979797"/>
<path d="M14.0784 35.1421C14.5592 35.6233 15.1978 35.8882 15.8771 35.8882H15.8805C16.5593 35.8874 17.1967 35.6217 17.675 35.1405C18.0262 34.787 18.0245 34.2157 17.6711 33.8644C17.3175 33.5132 16.7462 33.5149 16.395 33.8683C16.2573 34.0069 16.0737 34.0834 15.8781 34.0837C15.8777 34.0837 15.8775 34.0837 15.8771 34.0837C15.6803 34.0837 15.4949 34.0066 15.3551 33.8666C15.0028 33.514 14.4316 33.5139 14.079 33.866C13.7265 34.2183 13.7262 34.7896 14.0784 35.1421Z" fill="#979797"/>
<path d="M11.6786 30.5797C11.8645 30.3996 12.1784 30.3996 12.3643 30.5797C12.5396 30.7496 12.7659 30.8341 12.9921 30.8341C13.2278 30.8341 13.4632 30.7423 13.6402 30.5596C13.987 30.2018 13.978 29.6306 13.6202 29.2837C12.7387 28.4295 11.3043 28.4295 10.4228 29.2837C10.0649 29.6305 10.056 30.2018 10.4029 30.5596C10.7496 30.9176 11.3207 30.9267 11.6786 30.5797Z" fill="#979797"/>
<path d="M19.3906 30.5799C19.576 30.4001 19.8876 30.3992 20.0708 30.5779C20.2462 30.749 20.4736 30.8341 20.7008 30.8341C20.9355 30.8341 21.17 30.7431 21.3468 30.5618C21.6948 30.205 21.6875 29.6337 21.3308 29.2857C20.4519 28.4286 19.0182 28.4278 18.1348 29.2837C17.7768 29.6305 17.7679 30.2018 18.1147 30.5596C18.4614 30.9176 19.0326 30.9267 19.3906 30.5799Z" fill="#979797"/>
<path d="M22.4241 9.52116L28.588 15.6357C28.613 15.6606 28.6395 15.6839 28.6672 15.7056L28.7366 15.7601C28.9946 15.9637 29.2616 16.1742 29.6661 16.1858C29.6748 16.186 29.6833 16.1862 29.692 16.1862C29.7009 16.1862 29.7097 16.186 29.7186 16.1858C30.1193 16.174 30.3852 15.9642 30.6424 15.7613L30.7133 15.7056C30.741 15.6839 30.7674 15.6605 30.7924 15.6357L36.9564 9.52116C36.961 9.51647 36.9656 9.51178 36.9702 9.50697C39.1303 7.26882 39.1305 3.62411 36.9701 1.38139C35.1178 -0.536846 32.0034 -0.445169 29.6918 1.58075C27.3766 -0.444447 24.2612 -0.535763 22.4097 1.38212C20.2499 3.62399 20.2502 7.2687 22.4103 9.50685C22.4148 9.51178 22.4195 9.51647 22.4241 9.52116ZM23.7087 2.63504C25.0541 1.24147 27.2119 1.77686 28.5562 2.98574C28.6469 3.06816 28.7202 3.13806 28.7805 3.19557C29.0093 3.41393 29.2687 3.66141 29.692 3.66141C30.1133 3.66141 30.3662 3.42031 30.5894 3.20748C30.6512 3.14852 30.7275 3.07574 30.8254 2.98779C32.1701 1.77638 34.3257 1.24099 35.6711 2.63431C37.163 4.18308 37.1655 6.6989 35.678 8.24731L29.6902 14.1873L23.7023 8.24731C22.2149 6.6989 22.2174 4.18296 23.7087 2.63504Z" fill="#F171FC"/>
</svg>
