<svg width="93" height="33" viewBox="0 0 93 33" fill="none" xmlns="http://www.w3.org/2000/svg">
<g clip-path="url(#clip0)">
<path d="M10.1277 14.2654C7.8603 13.0531 6.4243 12.4776 6.58805 11.2409C6.68882 10.347 7.50759 9.96741 8.65388 10.1266C10.3544 10.3225 11.1102 11.3021 11.677 13.8858H12.4706L12.1305 8.93884C12.1305 8.93884 11.7652 8.93884 11.5763 8.93884C11.2865 10.1511 10.7827 9.19598 8.65388 8.93884C5.76928 8.62047 2.51938 9.31843 2.12888 12.4164C1.76359 15.4776 4.72377 16.8858 6.89037 17.9633C9.18293 19.1143 10.6693 19.6164 10.43 21.2817C10.304 22.298 8.89321 22.9348 7.1171 22.849C5.80707 22.7511 4.29548 22.3715 4.09394 21.5143C3.8924 20.5592 4.54742 19.8858 5.50475 19.947C5.46696 18.6735 4.78675 17.4858 3.11141 17.2654C1.10857 16.9837 -0.403015 18.7592 0.0882491 20.7062C0.617303 22.8123 4.28289 23.8654 7.01633 23.9878C10.367 24.1837 14.5239 23.4123 15.1789 20.2899C15.9347 16.7143 12.4328 15.5021 10.1277 14.2654Z" fill="#0D262D"/>
<path d="M19.9402 6.22041C21.7919 6.22041 23.3034 4.81224 23.3034 3.1102C23.3034 1.40816 21.7919 0 19.9402 0C18.0885 0 16.5769 1.40816 16.5769 3.1102C16.5769 4.81224 18.0885 6.22041 19.9402 6.22041Z" fill="#0D262D"/>
<path d="M23.3288 19.482V8.97583C23.3288 8.97583 23.0265 8.97583 22.4219 8.97583C20.4064 10.7391 16.9676 11.5228 15.0151 11.5228C15.0151 11.8779 15.0151 12.0126 15.0151 12.4044C17.5722 12.4044 17.9123 14.1064 17.9123 16.1636V19.4697C17.9123 21.5269 17.5722 23.2289 15.0151 23.2289C15.0151 23.6207 15.0151 24.1105 15.0151 24.1105H26.1252C26.1252 24.1105 26.1252 23.9146 26.1252 23.2289C23.5304 23.2411 23.3288 21.5391 23.3288 19.482Z" fill="#0D262D"/>
<path d="M45.8008 13.4573C42.2108 11.4859 36.0763 9.33082 36.3157 5.60837C36.4542 2.85327 39.3388 1.48184 42.2612 1.75123C46.7456 2.16755 48.7736 4.73898 50.0459 10.3349H51.5071L50.7513 0.0124512C50.7513 0.0124512 50.2348 0.0124512 49.8065 0.0124512C49.1515 2.63286 47.451 0.514492 42.2486 0.0981654C37.4368 -0.220202 30.1686 0.918574 29.7403 8.13082C29.4128 14.2288 35.3583 16.8492 40.0316 19.2369C45.1332 21.7594 48.4335 23.1798 47.7281 27.0859C47.262 29.5226 44.6168 31.5308 40.3591 31.3104C37.0589 31.1267 34.7411 29.9757 34.3128 27.8696C33.6956 24.8451 35.8748 23.6941 37.9532 23.8288C37.9532 22.09 36.1141 19.6533 32.9524 19.3349C29.4632 19.0165 26.6289 21.8084 27.4729 25.8002C28.3673 30.1104 34.2246 32.5961 40.1702 32.9635C46.3047 33.3308 53.6233 30.8084 54.6184 24.6614C55.7143 18.2329 50.3356 15.8451 45.8008 13.4573Z" fill="#0D262D"/>
<path d="M63.877 9.07386C58.977 8.32692 54.9713 10.7881 54.2533 15.2208C53.5353 19.6657 56.5837 23.1922 61.4837 23.9392C66.346 24.6739 70.3642 22.2249 71.0822 17.78C71.7876 13.3473 68.7393 9.80855 63.877 9.07386ZM62.7811 22.8861C60.7909 22.9106 59.5942 20.4249 59.5186 16.58C59.4431 12.6983 60.5138 10.1759 62.5544 10.1392C64.5824 10.0902 65.7791 12.5637 65.8547 16.4575C65.9177 20.3269 64.8092 22.8371 62.7811 22.8861Z" fill="#0D262D"/>
<path d="M92.4331 21.3554C92.1055 21.8942 91.6773 22.1881 91.123 22.0289C90.3294 21.8085 90.3042 20.7187 90.3042 19.1881V8.97583C90.3042 8.97583 89.9767 8.97583 89.4225 8.97583C87.4196 10.6656 84.4721 11.4615 82.57 11.4615C82.57 11.8166 82.57 11.9391 82.57 12.3187C85.0641 12.3187 85.0011 13.9718 85.0011 15.9922V17.6452C85.0011 19.7513 84.3461 21.4411 82.3432 21.4411C80.1137 21.4411 79.5594 19.7513 79.5594 17.8656V8.97583C79.5594 8.97583 79.2319 8.97583 78.6777 8.97583C76.7126 10.6656 73.7524 11.4615 71.8503 11.4615C71.8503 11.8166 71.8503 11.9391 71.8503 12.3187C74.3445 12.3187 74.2815 13.9718 74.2815 15.9922V18.3799C74.3193 22.3718 76.6748 24.0248 79.9625 24.0248C82.6204 24.0248 84.1949 22.8493 85.1523 21.4779C85.5805 23.2656 87.0543 24.0248 89.2587 24.0248C91.0978 24.0248 92.2441 23.2901 93.0377 21.6615L92.4331 21.3554Z" fill="#0D262D"/>
</g>
<defs>
<clipPath id="clip0">
<rect width="93" height="33" fill="white"/>
</clipPath>
</defs>
</svg>
